<svg xmlns="http://www.w3.org/2000/svg" xmlns:xlink="http://www.w3.org/1999/xlink" width="500" zoomAndPan="magnify" viewBox="0 0 375 374.999991" height="500" preserveAspectRatio="xMidYMid meet" version="1.0"><defs><g/></defs><g fill="#2b2b2b" fill-opacity="1"><g transform="translate(164.455575, 339.984261)"><g><path d="M 168.78125 -91.859375 C 168.78125 -82.867188 166.648438 -74 162.390625 -65.25 C 158.140625 -56.5 152.429688 -48.597656 145.265625 -41.546875 C 138.097656 -34.503906 129.710938 -28.3125 120.109375 -22.96875 C 110.515625 -17.625 100.367188 -13.128906 89.671875 -9.484375 C 68.773438 -2.191406 47.390625 1.453125 25.515625 1.453125 C 16.285156 1.453125 7.660156 0.722656 -0.359375 -0.734375 C 11.546875 -44.234375 21.019531 -88.097656 28.0625 -132.328125 C 35.113281 -176.554688 41.921875 -221.03125 48.484375 -265.75 C 82.503906 -272.789062 110.328125 -276.3125 131.953125 -276.3125 C 157.472656 -276.3125 175.21875 -267.5625 185.1875 -250.0625 C 189.070312 -243.507812 191.015625 -235.429688 191.015625 -225.828125 C 191.015625 -216.222656 189.492188 -207.289062 186.453125 -199.03125 C 183.421875 -190.769531 179.472656 -183.238281 174.609375 -176.4375 C 164.648438 -162.820312 152.742188 -153.460938 138.890625 -148.359375 C 158.816406 -136.210938 168.78125 -117.378906 168.78125 -91.859375 Z M 72.90625 -74 C 95.019531 -76.425781 110.570312 -82.625 119.5625 -92.59375 C 123.457031 -96.96875 125.40625 -101.828125 125.40625 -107.171875 C 125.40625 -112.515625 124.25 -116.707031 121.9375 -119.75 C 119.625 -122.789062 116.644531 -125.28125 113 -127.21875 C 105.707031 -131.101562 97.8125 -133.046875 89.3125 -133.046875 L 86.03125 -133.046875 C 85.0625 -133.046875 84.085938 -132.925781 83.109375 -132.6875 C 82.140625 -126.613281 81.226562 -121.265625 80.375 -116.640625 C 79.53125 -112.023438 78.742188 -107.59375 78.015625 -103.34375 C 77.285156 -99.09375 76.492188 -94.65625 75.640625 -90.03125 C 74.785156 -85.414062 73.875 -80.070312 72.90625 -74 Z M 91.859375 -178.625 C 122.234375 -185.425781 137.421875 -193.8125 137.421875 -203.78125 C 137.421875 -213.25 129.644531 -219.203125 114.09375 -221.640625 C 110.207031 -222.367188 106.804688 -222.734375 103.890625 -222.734375 L 99.875 -222.734375 C 99.394531 -220.054688 98.847656 -216.832031 98.234375 -213.0625 C 97.628906 -209.300781 96.960938 -205.414062 96.234375 -201.40625 C 95.503906 -197.394531 94.710938 -193.382812 93.859375 -189.375 C 93.015625 -185.363281 92.347656 -181.78125 91.859375 -178.625 Z M 91.859375 -178.625 "/></g></g></g><g fill="#2b2b2b" fill-opacity="1"><g transform="translate(30.05678, 283.815377)"><g><path d="M 47.84375 -256.140625 C 53.007812 -256.609375 59.050781 -257.191406 65.96875 -257.890625 C 72.882812 -258.597656 79.6875 -259.242188 86.375 -259.828125 C 93.0625 -260.421875 100.039062 -261.066406 107.3125 -261.765625 C 101.207031 -232.910156 96.394531 -210.039062 92.875 -193.15625 C 89.363281 -176.269531 86.550781 -162.78125 84.4375 -152.6875 C 82.332031 -142.601562 80.457031 -133.34375 78.8125 -124.90625 C 75.0625 -107.070312 72.597656 -95.460938 71.421875 -90.078125 C 67.898438 -73.890625 66.140625 -63.445312 66.140625 -58.75 C 66.140625 -54.0625 67.132812 -50.484375 69.125 -48.015625 C 71.125 -45.554688 73.820312 -44.328125 77.21875 -44.328125 C 80.625 -44.328125 83.675781 -45.96875 86.375 -49.25 C 89.070312 -52.539062 91.300781 -56.410156 93.0625 -60.859375 C 94.820312 -65.316406 96.171875 -69.890625 97.109375 -74.578125 C 98.046875 -79.273438 99.039062 -84.023438 100.09375 -88.828125 C 101.15625 -93.640625 102.5625 -100.328125 104.3125 -108.890625 C 106.070312 -117.453125 107.832031 -126.363281 109.59375 -135.625 C 111.351562 -144.894531 113.171875 -154.335938 115.046875 -163.953125 C 119.972656 -188.585938 125.722656 -219.785156 132.296875 -257.546875 L 186.828125 -261.0625 L 185.0625 -251.921875 C 182.25 -237.140625 179.140625 -220.070312 175.734375 -200.71875 C 172.335938 -181.375 169.234375 -164.664062 166.421875 -150.59375 C 159.148438 -114 153.753906 -88.019531 150.234375 -72.65625 C 146.710938 -57.289062 141.84375 -44.800781 135.625 -35.1875 C 129.414062 -25.570312 122.207031 -17.597656 114 -11.265625 C 98.28125 0.460938 80.097656 6.328125 59.453125 6.328125 C 46.796875 6.328125 35.890625 2.8125 26.734375 -4.21875 C 16.421875 -12.664062 11.265625 -23.804688 11.265625 -37.640625 C 11.265625 -38.578125 11.265625 -39.515625 11.265625 -40.453125 C 11.265625 -41.398438 11.554688 -44.566406 12.140625 -49.953125 C 12.722656 -55.347656 14.066406 -65.023438 16.171875 -78.984375 C 18.285156 -92.941406 20.570312 -107.484375 23.03125 -122.609375 C 25.5 -137.742188 28.140625 -152.929688 30.953125 -168.171875 C 33.773438 -183.421875 36.359375 -197.257812 38.703125 -209.6875 C 43.859375 -236.425781 46.90625 -251.910156 47.84375 -256.140625 Z M 47.84375 -256.140625 "/></g></g></g><path stroke-linecap="butt" transform="matrix(26.494669, -26.494669, 26.516503, 26.516503, 54.900685, 316.805077)" fill="none" stroke-linejoin="miter" d="M 0.0000386521 0.000023939 L 9.868474 0.000023939 " stroke="#f4f4f4" stroke-width="1" stroke-opacity="1" stroke-miterlimit="4"/></svg>