<svg xmlns="http://www.w3.org/2000/svg" xmlns:xlink="http://www.w3.org/1999/xlink" width="500" zoomAndPan="magnify" viewBox="0 0 375 374.999991" height="500" preserveAspectRatio="xMidYMid meet" version="1.0"><defs><g/></defs><g fill="#ffffff" fill-opacity="1"><g transform="translate(183.691532, 351.530609)"><g><path d="M 182.703125 -246.125 L 182.703125 -210 C 182.703125 -194.039062 178.289062 -182.835938 169.46875 -176.390625 C 160.644531 -169.953125 148.253906 -166.59375 132.296875 -166.3125 L 131.453125 -165.484375 C 150.210938 -164.359375 164.28125 -158.613281 173.65625 -148.25 C 183.039062 -137.894531 187.734375 -124.878906 187.734375 -109.203125 L 187.734375 -64.265625 C 187.734375 -42.140625 181.644531 -25.894531 169.46875 -15.53125 C 157.289062 -5.175781 139.441406 0 115.921875 0 L 9.234375 0 L 9.234375 -299.875 L 120.546875 -299.875 C 141.546875 -299.875 157.15625 -295.535156 167.375 -286.859375 C 177.59375 -278.179688 182.703125 -264.601562 182.703125 -246.125 Z M 92.8125 -183.125 C 98.695312 -183.125 103.109375 -184.941406 106.046875 -188.578125 C 108.984375 -192.222656 110.453125 -196.285156 110.453125 -200.765625 L 110.453125 -234.359375 C 110.453125 -238.273438 109.050781 -242.191406 106.25 -246.109375 C 103.457031 -250.035156 98.703125 -252 91.984375 -252 L 84 -252 L 84 -183.125 Z M 110.453125 -68.453125 L 110.453125 -119.703125 C 110.453125 -125.578125 108.84375 -130.054688 105.625 -133.140625 C 102.40625 -136.222656 97.859375 -137.765625 91.984375 -137.765625 L 84 -137.765625 L 84 -50.40625 C 85.125 -50.125 86.664062 -49.984375 88.625 -49.984375 C 95.34375 -49.984375 100.660156 -51.378906 104.578125 -54.171875 C 108.492188 -56.972656 110.453125 -61.734375 110.453125 -68.453125 Z M 110.453125 -68.453125 "/></g></g></g><g fill="#ffffff" fill-opacity="1"><g transform="translate(-3.739565, 314.572729)"><g><path d="M 86.515625 -69.296875 C 86.515625 -60.054688 87.914062 -53.96875 90.71875 -51.03125 C 93.519531 -48.09375 97.019531 -46.625 101.21875 -46.625 C 105.414062 -46.625 108.914062 -48.09375 111.71875 -51.03125 C 114.519531 -53.96875 115.921875 -60.054688 115.921875 -69.296875 L 115.921875 -299.875 L 193.203125 -299.875 L 193.203125 -80.21875 C 193.203125 -22.539062 162.539062 6.296875 101.21875 6.296875 C 39.894531 6.296875 9.234375 -22.539062 9.234375 -80.21875 L 9.234375 -299.875 L 86.515625 -299.875 Z M 86.515625 -69.296875 "/></g></g></g></svg>