<svg xmlns="http://www.w3.org/2000/svg" xmlns:xlink="http://www.w3.org/1999/xlink" width="500" zoomAndPan="magnify" viewBox="0 0 375 374.999991" height="500" preserveAspectRatio="xMidYMid meet" version="1.0"><defs><g/></defs><g fill="#000000" fill-opacity="1"><g transform="translate(167.476971, 370.226947)"><g><path d="M 14.1875 -320.65625 L 101.15625 -320.65625 C 124.550781 -320.65625 141.535156 -314.929688 152.109375 -303.484375 C 162.679688 -292.035156 167.96875 -273.367188 167.96875 -247.484375 L 167.96875 -233.296875 C 167.96875 -202.691406 157.019531 -184.398438 135.125 -178.421875 C 148.5625 -174.941406 158.015625 -166.851562 163.484375 -154.15625 C 168.960938 -141.46875 171.703125 -124.671875 171.703125 -103.765625 C 171.703125 -69.671875 166.597656 -43.851562 156.390625 -26.3125 C 146.191406 -8.769531 127.78125 0 101.15625 0 L 14.1875 0 Z M 89.953125 -200.078125 C 95.429688 -200.078125 99.164062 -202.128906 101.15625 -206.234375 C 103.144531 -210.335938 104.140625 -216.125 104.140625 -223.59375 L 104.140625 -255.703125 C 104.140625 -266.148438 99.535156 -271.375 90.328125 -271.375 L 76.890625 -271.375 L 76.890625 -200.078125 Z M 83.234375 -56.359375 C 99.910156 -56.359375 108.25 -64.320312 108.25 -80.25 L 108.25 -120.203125 C 108.25 -129.898438 106.816406 -137.238281 103.953125 -142.21875 C 101.097656 -147.195312 96.0625 -149.6875 88.84375 -149.6875 L 76.890625 -149.6875 L 76.890625 -56.734375 Z M 83.234375 -56.359375 "/></g></g></g><g fill="#000000" fill-opacity="1"><g transform="translate(32.726603, 313.308063)"><g><path d="M 85.390625 2.875 C 59.929688 2.875 41.015625 -4.328125 28.640625 -18.734375 C 16.273438 -33.140625 10.09375 -54.515625 10.09375 -82.859375 L 10.09375 -309.484375 L 70.25 -309.484375 L 70.25 -85.390625 C 70.25 -75.535156 71.207031 -67.847656 73.125 -62.328125 C 75.050781 -56.804688 79.140625 -54.046875 85.390625 -54.046875 C 91.628906 -54.046875 95.707031 -56.742188 97.625 -62.140625 C 99.550781 -67.546875 100.515625 -75.296875 100.515625 -85.390625 L 100.515625 -309.484375 L 160.6875 -309.484375 L 160.6875 -82.859375 C 160.6875 -54.515625 154.5 -33.140625 142.125 -18.734375 C 129.757812 -4.328125 110.847656 2.875 85.390625 2.875 Z M 85.390625 2.875 "/></g></g></g><path stroke-linecap="butt" transform="matrix(26.494669, -26.494669, 26.516503, 26.516503, 67.484582, 326.797771)" fill="none" stroke-linejoin="miter" d="M 0.0000130002 -0.0000208136 L 9.868449 -0.0000208136 " stroke="#f4f4f4" stroke-width="1" stroke-opacity="1" stroke-miterlimit="4"/></svg>